<svg xmlns="http://www.w3.org/2000/svg" width="300" height="150" viewBox="0 0 300 150"><rect width="100%" height="100%" fill="#F0F0F0"/><path fill="#000000" d="m65.23 70.385-.54 1.02q-.09.16-.2.24t-.27.08q-.17 0-.36-.13-.2-.12-.47-.27-.27-.16-.64-.28-.36-.12-.86-.12-.44 0-.78.1-.34.11-.56.3-.23.2-.34.46-.12.27-.12.59 0 .41.23.68t.61.47q.37.19.85.34t.99.32q.5.18.98.4.48.23.86.58.37.35.6.85.23.51.23 1.23 0 .78-.27 1.46-.27.69-.78 1.2-.52.5-1.26.8-.75.29-1.71.29-.55 0-1.09-.11-.53-.11-1.02-.31-.5-.2-.93-.48t-.77-.62l.64-1.03q.08-.12.2-.19.13-.08.28-.08.2 0 .43.17.23.16.55.36t.75.36q.43.17 1.03.17.92 0 1.42-.44.5-.43.5-1.25 0-.46-.22-.74-.23-.29-.61-.49-.37-.19-.85-.33t-.98-.3-.98-.38-.85-.58q-.38-.36-.61-.9-.22-.54-.22-1.34 0-.63.25-1.23t.73-1.06q.48-.47 1.18-.75.71-.28 1.62-.28 1.02 0 1.89.32.86.32 1.47.9m3.33 5.43h3.73q0-.38-.11-.72t-.33-.6q-.21-.25-.54-.4-.34-.15-.78-.15-.85 0-1.34.49-.5.49-.63 1.38m5.04 1.19h-5.08q.05.64.22 1.1.18.46.47.76.28.3.68.44.4.15.88.15t.82-.11q.35-.11.61-.25.26-.13.46-.25.19-.11.38-.11.25 0 .37.19l.56.72q-.32.38-.73.64t-.85.42q-.45.15-.91.22-.46.06-.89.06-.86 0-1.59-.28-.74-.29-1.28-.84-.55-.56-.86-1.38t-.31-1.9q0-.84.27-1.58t.78-1.29 1.24-.87 1.65-.32q.78 0 1.44.25.65.25 1.12.73.48.47.74 1.16.27.7.27 1.58 0 .45-.09.61-.1.15-.37.15m3.92 3.86h-1.98v-8.21h1.21q.38 0 .5.36l.13.61q.22-.24.45-.44.24-.2.51-.34.27-.15.57-.23.31-.09.68-.09.78 0 1.28.42t.74 1.12q.2-.41.48-.7.29-.29.64-.48.34-.18.73-.27t.78-.09q.68 0 1.21.21.52.21.88.61t.55.98q.19.57.19 1.32v5.22h-1.98v-5.22q0-.79-.34-1.18-.34-.4-1.01-.4-.3 0-.56.1-.26.11-.46.3-.19.2-.31.5-.11.29-.11.68v5.22h-1.98v-5.22q0-.83-.33-1.2-.34-.38-.98-.38-.43 0-.8.21t-.69.58zm15.76-2.12v-1.38q-.86.04-1.44.14-.59.11-.94.28t-.5.39q-.15.23-.15.49 0 .52.3.74.31.23.81.23.61 0 1.05-.22t.87-.67m-4.18-4.31-.35-.63q1.42-1.3 3.41-1.3.72 0 1.29.24.56.23.96.65.39.42.59 1.01.21.58.21 1.28v5.18h-.9q-.28 0-.43-.08-.15-.09-.24-.34l-.18-.6q-.31.28-.61.5-.29.21-.61.35-.32.15-.69.22-.36.08-.8.08-.52 0-.96-.14t-.76-.42-.5-.7q-.17-.41-.17-.97 0-.31.1-.62.11-.3.34-.58.24-.28.61-.53.38-.25.93-.43.55-.19 1.27-.3.73-.12 1.67-.14v-.48q0-.83-.35-1.22-.36-.4-1.02-.4-.48 0-.8.11-.31.11-.55.25t-.44.26q-.19.11-.43.11-.21 0-.36-.11-.14-.11-.23-.25m9.67-1.42.14.65q.25-.25.52-.46.28-.21.59-.36t.66-.23q.35-.09.77-.09.67 0 1.19.23t.87.64q.34.41.52.99.18.57.18 1.26v5.22h-1.97v-5.22q0-.76-.35-1.17-.34-.41-1.04-.41-.52 0-.96.23-.45.23-.85.63v5.94h-1.98v-8.21h1.21q.38 0 .5.36m10.05 7.98q-1.07 0-1.64-.61-.57-.6-.57-1.66v-4.59h-.84q-.16 0-.28-.1-.11-.11-.11-.31v-.79l1.32-.21.42-2.24q.04-.16.15-.25t.29-.09h1.02v2.58h2.19v1.41h-2.19v4.45q0 .38.19.6t.52.22q.18 0 .3-.05.13-.04.22-.09l.16-.09q.08-.05.15-.05.09 0 .14.05.06.04.12.13l.59.96q-.43.36-.99.54-.56.19-1.16.19m3.28-8.34h1.99v8.21h-1.99zm2.26-2.39q0 .26-.11.48-.1.22-.27.39t-.41.27q-.23.1-.49.1t-.49-.1q-.22-.1-.39-.27t-.27-.39-.1-.48.1-.5q.1-.23.27-.4.17-.16.39-.26.23-.1.49-.1t.49.1q.24.1.41.26.17.17.27.4.11.24.11.5m8.14 3.41-.52.72q-.09.11-.17.17-.08.07-.24.07t-.3-.09q-.14-.1-.34-.21-.2-.12-.48-.21t-.68-.09q-.52 0-.92.19-.39.18-.65.54-.26.35-.39.85-.12.5-.12 1.13 0 .66.14 1.17t.4.86.64.53.85.18.76-.12.49-.26.35-.25q.15-.12.33-.12.24 0 .36.19l.57.72q-.33.38-.71.64t-.8.42q-.41.15-.84.22-.44.06-.87.06-.76 0-1.43-.28-.68-.29-1.18-.83-.5-.55-.8-1.33-.29-.79-.29-1.8 0-.9.26-1.68.26-.77.77-1.33.5-.57 1.24-.89.75-.32 1.72-.32.92 0 1.61.3t1.24.85m13.11-4.38h2.16v11.57h-2.16v-5.06h-5.44v5.06h-2.16v-11.57h2.16v4.98h5.44zm12.81 0v1.77h-3.49v9.8h-2.15v-9.8h-3.49v-1.77zm12.44 0h1.63v11.57h-1.9v-7.47q0-.45.05-.97l-3.5 6.57q-.25.47-.76.47h-.3q-.51 0-.76-.47l-3.54-6.59q.03.26.04.52.02.25.02.47v7.47h-1.9v-11.57h1.63q.14 0 .24.01.11.01.19.04.09.03.15.1.07.08.14.2l3.46 6.42q.14.26.25.53.12.27.23.56.11-.3.23-.57.12-.28.26-.54l3.41-6.4q.07-.12.14-.2.07-.07.16-.1.08-.03.18-.04.11-.01.25-.01m6.35 9.79h4.63v1.78h-6.78v-11.57h2.15zm16.75-8.7-.54 1.02q-.09.16-.2.24t-.27.08q-.17 0-.36-.13-.2-.12-.47-.27-.27-.16-.64-.28-.36-.12-.86-.12-.45 0-.78.1-.34.11-.57.3-.22.2-.34.46-.11.27-.11.59 0 .41.23.68t.6.47q.38.19.86.34t.98.32q.51.18.99.4.48.23.85.58.38.35.61.85.23.51.23 1.23 0 .78-.27 1.46-.27.69-.79 1.2-.51.5-1.26.8-.74.29-1.7.29-.55 0-1.09-.11-.53-.11-1.03-.31-.49-.2-.92-.48t-.77-.62l.63-1.03q.08-.12.21-.19.13-.08.27-.08.2 0 .44.17.23.16.55.36t.75.36q.42.17 1.02.17.92 0 1.43-.44.5-.43.5-1.25 0-.46-.23-.74-.22-.29-.6-.49-.38-.19-.86-.33t-.97-.3q-.5-.16-.98-.38t-.85-.58q-.38-.36-.61-.9t-.23-1.34q0-.63.26-1.23.25-.6.73-1.06.48-.47 1.18-.75.71-.28 1.62-.28 1.02 0 1.89.32.86.32 1.47.9m4.5 10.61q-1.07 0-1.64-.61-.57-.6-.57-1.66v-4.59h-.84q-.16 0-.28-.1-.11-.11-.11-.31v-.79l1.32-.21.42-2.24q.04-.16.15-.25t.29-.09h1.02v2.58h2.19v1.41h-2.19v4.45q0 .38.19.6t.52.22q.18 0 .3-.05.13-.04.22-.09l.16-.09q.08-.05.15-.05.09 0 .14.05.06.04.12.13l.59.96q-.43.36-.99.54-.56.19-1.16.19m4.96-7.84.12.93q.39-.74.91-1.16.53-.42 1.25-.42.57 0 .91.25l-.12 1.48q-.04.14-.12.2t-.2.06-.36-.04-.46-.04q-.33 0-.58.1-.26.09-.46.27-.21.18-.36.44-.16.26-.3.58v5.06h-1.97v-8.21h1.16q.3 0 .42.11t.16.39m9.32-.5h1.98v8.21h-1.21q-.39 0-.5-.36l-.13-.66q-.51.52-1.11.83-.61.32-1.44.32-.67 0-1.18-.23-.52-.23-.87-.64-.35-.42-.53-.99t-.18-1.26v-5.22h1.97v5.22q0 .75.35 1.16t1.04.41q.52 0 .96-.22.45-.23.85-.63zm10.33 1.02-.52.72q-.09.11-.17.17-.09.07-.25.07-.15 0-.29-.09-.15-.1-.35-.21-.2-.12-.47-.21-.28-.09-.69-.09-.52 0-.91.19-.39.18-.65.54-.26.35-.39.85t-.13 1.13q0 .66.14 1.17t.41.86q.26.35.64.53.37.18.85.18.47 0 .76-.12t.49-.26.35-.25q.15-.12.33-.12.24 0 .36.19l.57.72q-.33.38-.71.64-.39.26-.8.42-.41.15-.85.22-.43.06-.86.06-.76 0-1.44-.28-.67-.29-1.17-.83-.51-.55-.8-1.33-.29-.79-.29-1.8 0-.9.26-1.68.26-.77.76-1.33.51-.57 1.25-.89.75-.32 1.71-.32.92 0 1.62.3.69.3 1.24.85m4.05 7.32q-1.07 0-1.65-.61-.57-.6-.57-1.66v-4.59h-.84q-.16 0-.27-.1-.11-.11-.11-.31v-.79l1.32-.21.41-2.24q.04-.16.16-.25.11-.09.28-.09h1.03v2.58h2.19v1.41h-2.19v4.45q0 .38.19.6.18.22.51.22.19 0 .31-.05.12-.04.22-.09l.16-.09q.07-.05.14-.05.09 0 .15.05.05.04.12.13l.59.96q-.43.36-.99.54-.56.19-1.16.19m8.31-8.34h1.98v8.21h-1.21q-.39 0-.5-.36l-.13-.66q-.51.52-1.12.83-.6.32-1.43.32-.67 0-1.19-.23-.51-.23-.86-.64-.36-.42-.54-.99t-.18-1.26v-5.22h1.98v5.22q0 .75.35 1.16t1.04.41q.51 0 .96-.22.45-.23.85-.63zm5.67.5.12.93q.39-.74.91-1.16.53-.42 1.25-.42.57 0 .91.25l-.12 1.48q-.04.14-.12.2t-.2.06-.36-.04-.46-.04q-.33 0-.58.1-.26.09-.46.27-.21.18-.36.44-.16.26-.3.58v5.06h-1.97v-8.21h1.16q.3 0 .42.11t.16.39m5.79 2.66h3.72q0-.38-.1-.72-.11-.34-.33-.6-.21-.25-.55-.4-.33-.15-.77-.15-.85 0-1.35.49-.49.49-.62 1.38m5.04 1.19h-5.08q.04.64.22 1.1t.46.76q.29.3.69.44.39.15.87.15t.83-.11.61-.25q.26-.13.46-.25.19-.11.38-.11.24 0 .36.19l.57.72q-.33.38-.73.64-.41.26-.86.42-.44.15-.9.22-.46.06-.89.06-.86 0-1.59-.28-.74-.29-1.28-.84-.55-.56-.86-1.38t-.31-1.9q0-.84.27-1.58t.78-1.29 1.24-.87 1.65-.32q.78 0 1.43.25.66.25 1.13.73.47.47.74 1.16.27.7.27 1.58 0 .45-.1.61-.09.15-.36.15"/></svg>